<svg xmlns="http://www.w3.org/2000/svg" viewBox="0 0 24 24" fill="none" aria-hidden="true">
  <g stroke="#7C3AED" stroke-width="1.9" stroke-linecap="round" stroke-linejoin="round">
    <path d="M8.2 4.3h6.2c3.1 0 5.6 2.5 5.6 5.6v1.8c0 2.7-1.9 5-4.5 5.5l-2.8.6-2.3 1.7a.8.8 0 0 1-1.3-.6v-1.2H8.2c-3.1 0-5.6-2.5-5.6-5.6V9.9c0-3.1 2.5-5.6 5.6-5.6z"/>
    <path d="M9.2 9.1c.2-.4.5-.5.8-.2l.8 1c.2.2.2.5 0 .8l-.4.5c-.1.1-.1.3 0 .4.5 1 1.3 1.8 2.3 2.3.1.1.3.1.4 0l.5-.4c.2-.2.5-.2.8 0l1 .8c.3.3.2.6-.2.8l-.7.3c-.6.2-1.2.2-1.8 0-1.3-.4-2.7-1.4-3.7-2.4-1.1-1.1-2-2.4-2.4-3.8-.2-.5-.2-1.1 0-1.7l.3-.4z"/>
    <path d="M13.9 7.1c1.2 0 2.2 1 2.3 2.3"/>
    <path d="M12.9 7.1c1.7 0 3.1 1.4 3.1 3.1"/>
  </g>
</svg>
